<?xml version="1.0" standalone="no"?>
<!DOCTYPE svg PUBLIC "-//W3C//DTD SVG 20010904//EN"
 "http://www.w3.org/TR/2001/REC-SVG-20010904/DTD/svg10.dtd">
<svg version="1.0" xmlns="http://www.w3.org/2000/svg"
 width="128.000000pt" height="128.000000pt" viewBox="0 0 128.000000 128.000000"
 preserveAspectRatio="xMidYMid meet">
<metadata>
Created by potrace 1.11, written by Peter Selinger 2001-2013
</metadata>
<g transform="translate(0.000000,128.000000) scale(0.100000,-0.100000)"
fill="#000000" stroke="none">
<path d="M845 1113 c-12 -30 -12 -83 1 -101 30 -41 61 48 34 99 -13 24 -26 24
-35 2z"/>
<path d="M1031 1006 c-21 -22 -31 -41 -28 -50 10 -25 30 -19 67 19 28 29 31
37 20 50 -17 21 -22 20 -59 -19z"/>
<path d="M637 1023 c-13 -12 -7 -23 28 -58 21 -22 40 -33 50 -29 23 9 18 34
-15 65 -29 28 -50 36 -63 22z"/>
<path d="M817 955 c-48 -17 -64 -31 -88 -76 -23 -46 -24 -75 -4 -83 11 -4 19
3 25 22 27 76 57 102 118 102 71 0 126 -76 103 -142 -6 -17 -22 -40 -36 -53
-23 -19 -24 -23 -11 -34 13 -11 21 -8 50 21 109 109 -10 294 -157 243z"/>
<path d="M1064 815 c-10 -25 6 -35 56 -35 47 0 62 11 53 38 -7 18 -102 16
-109 -3z"/>
<path d="M637 749 c-42 -10 -125 -63 -134 -85 -4 -10 -15 -12 -44 -8 -63 10
-106 -3 -149 -46 -28 -28 -42 -52 -46 -80 -5 -31 -13 -44 -34 -55 -97 -50
-126 -182 -61 -272 55 -76 65 -78 426 -81 342 -3 372 0 425 44 42 36 61 77 62
133 0 75 -38 131 -109 162 -27 11 -33 19 -33 45 0 46 -25 121 -53 157 -51 67
-166 107 -250 86z m130 -64 c49 -20 71 -41 96 -90 22 -43 26 -119 8 -152 -13
-26 -5 -33 29 -27 30 6 75 -13 103 -44 43 -48 26 -140 -32 -175 -26 -15 -66
-17 -359 -17 -326 0 -329 0 -363 23 -42 28 -59 60 -59 114 0 51 44 108 93 121
28 7 31 12 32 49 1 52 27 91 73 110 34 14 41 14 82 0 24 -9 45 -15 45 -14 0 1
14 19 29 41 51 68 145 94 223 61z"/>
<path d="M1003 654 c-8 -22 57 -87 80 -78 25 9 21 26 -16 62 -37 35 -55 40
-64 16z"/>
</g>
</svg>
